#Comment line ignore any data following # character 
#Hierarchical Translation and Rotation (.htr) file 
[Header]	
#Header keywords are followed by a single value 
FileType HTR		#Single word string
DataType HTRS		#Translation followed by rotation and scale data
FileVersion 1		#integer
NumSegments 64		#integer
NumFrames 3		#integer
DataFrameRate 30		#integer, data frame rate in this file
EulerRotationOrder ZYX
CalibrationUnits mm
RotationUnits Degrees
GlobalAxisofGravity Y
BoneLengthAxis Y
ScaleFactor 1.00
[SegmentNames&Hierarchy]
#CHILD	PARENT
Pinger_Root GLOBAL
Pelvis Pinger_Root
L_Hip Pelvis
R_Hip Pelvis
Rear_Leg01 Pelvis
Spine1 Pelvis
L_Leg01 L_Hip
L_Leg02 L_Leg01
L_Leg03 L_Leg02
L_Foot L_Leg03
L_Toe1_01 L_Foot
L_Toe2_01 L_Foot
L_Toe3_01 L_Foot
planeAlignerLeft L_Foot
L_Toe1_02 L_Toe1_01
L_Toe1_03 L_Toe1_02
L_Toe2_02 L_Toe2_01
L_Toe2_03 L_Toe2_02
L_Toe3_02 L_Toe3_01
L_Toe3_03 L_Toe3_02
planeLockWeightLeft planeAlignerLeft
R_Leg01 R_Hip
R_Leg02 R_Leg01
R_Leg03 R_Leg02
R_Foot R_Leg03
planeAlignerRight R_Foot
R_Toe1_01 R_Foot
R_Toe2_01 R_Foot
R_Toe3_01 R_Foot
planeLockWeightRight planeAlignerRight
R_Toe1_02 R_Toe1_01
R_Toe1_03 R_Toe1_02
R_Toe2_02 R_Toe2_01
R_Toe2_03 R_Toe2_02
R_Toe3_02 R_Toe3_01
R_Toe3_03 R_Toe3_02
Rear_Leg02 Rear_Leg01
Rear_Leg03 Rear_Leg02
Rear_Leg04 Rear_Leg03
Rear_Foot Rear_Leg04
planeAlignerCenter Rear_Foot
Rear_Toe1_01 Rear_Foot
Rear_Toe2_01 Rear_Foot
Rear_Toe3_01 Rear_Foot
planeLockWeightCenter planeAlignerCenter
Rear_Toe1_02 Rear_Toe1_01
Rear_Toe1_03 Rear_Toe1_02
Rear_Toe2_02 Rear_Toe2_01
Rear_Toe2_03 Rear_Toe2_02
Rear_Toe3_02 Rear_Toe3_01
Rear_Toe3_03 Rear_Toe3_02
Back_Bone Spine1
Head Spine1
Motor_Bone Back_Bone
Ping_Mechanism Back_Bone
BN_LookIK Head
bottomMouth Head
L_Mouth01 Head
L_mouthFront Head
mouthGun Head
R_Mouth01 Head
R_mouthFront Head
TopMouth Head
weapon_bone Head
[BasePosition]
#SegmentName Tx, Ty, Tz, Rx, Ry, Rz, BoneLength
Pinger_Root 0.000000 0.000000 0.000000 -90.000000 0.000000 0.000000 10.000000 
Pelvis 0.000000 0.000000 0.000000 0.000000 0.000000 0.000000 10.000000 
L_Hip 0.000000 0.000000 0.000000 0.000000 0.000000 0.000000 10.000000 
R_Hip 0.000000 0.000000 0.000000 0.000000 0.000000 0.000000 10.000000 
Rear_Leg01 0.000000 0.000000 0.000000 0.000000 0.000000 0.000000 10.000000 
Spine1 0.000000 0.000000 0.000000 0.000000 0.000000 0.000000 10.000000 
L_Leg01 0.000000 0.000000 0.000000 0.000000 0.000000 0.000000 10.000000 
L_Leg02 0.000000 0.000000 0.000000 0.000000 0.000000 0.000000 10.000000 
L_Leg03 0.000000 0.000000 0.000000 0.000000 0.000000 0.000000 10.000000 
L_Foot 0.000000 0.000000 0.000000 0.000000 0.000000 0.000000 10.000000 
L_Toe1_01 0.000000 0.000000 0.000000 0.000000 0.000000 0.000000 10.000000 
L_Toe2_01 0.000000 0.000000 0.000000 0.000000 0.000000 0.000000 10.000000 
L_Toe3_01 0.000000 0.000000 0.000000 0.000000 0.000000 0.000000 10.000000 
planeAlignerLeft 0.000000 0.000000 0.000000 0.000000 0.000000 0.000000 10.000000 
L_Toe1_02 0.000000 0.000000 0.000000 0.000000 0.000000 0.000000 10.000000 
L_Toe1_03 0.000000 0.000000 0.000000 0.000000 0.000000 0.000000 10.000000 
L_Toe2_02 0.000000 0.000000 0.000000 0.000000 0.000000 0.000000 10.000000 
L_Toe2_03 0.000000 0.000000 0.000000 0.000000 0.000000 0.000000 10.000000 
L_Toe3_02 0.000000 0.000000 0.000000 0.000000 0.000000 0.000000 10.000000 
L_Toe3_03 0.000000 0.000000 0.000000 0.000000 0.000000 0.000000 10.000000 
planeLockWeightLeft 0.000000 0.000000 0.000000 0.000000 0.000000 0.000000 10.000000 
R_Leg01 0.000000 0.000000 0.000000 0.000000 0.000000 0.000000 10.000000 
R_Leg02 0.000000 0.000000 0.000000 0.000000 0.000000 0.000000 10.000000 
R_Leg03 0.000000 0.000000 0.000000 0.000000 0.000000 0.000000 10.000000 
R_Foot 0.000000 0.000000 0.000000 0.000000 0.000000 0.000000 10.000000 
planeAlignerRight 0.000000 0.000000 0.000000 0.000000 0.000000 0.000000 10.000000 
R_Toe1_01 0.000000 0.000000 0.000000 0.000000 0.000000 0.000000 10.000000 
R_Toe2_01 0.000000 0.000000 0.000000 0.000000 0.000000 0.000000 10.000000 
R_Toe3_01 0.000000 0.000000 0.000000 0.000000 0.000000 0.000000 10.000000 
planeLockWeightRight 0.000000 0.000000 0.000000 0.000000 0.000000 0.000000 10.000000 
R_Toe1_02 0.000000 0.000000 0.000000 0.000000 0.000000 0.000000 10.000000 
R_Toe1_03 0.000000 0.000000 0.000000 0.000000 0.000000 0.000000 10.000000 
R_Toe2_02 0.000000 0.000000 0.000000 0.000000 0.000000 0.000000 10.000000 
R_Toe2_03 0.000000 0.000000 0.000000 0.000000 0.000000 0.000000 10.000000 
R_Toe3_02 0.000000 0.000000 0.000000 0.000000 0.000000 0.000000 10.000000 
R_Toe3_03 0.000000 0.000000 0.000000 0.000000 0.000000 0.000000 10.000000 
Rear_Leg02 0.000000 0.000000 0.000000 0.000000 0.000000 0.000000 10.000000 
Rear_Leg03 0.000000 0.000000 0.000000 0.000000 0.000000 0.000000 10.000000 
Rear_Leg04 0.000000 0.000000 0.000000 0.000000 0.000000 0.000000 10.000000 
Rear_Foot 0.000000 0.000000 0.000000 0.000000 0.000000 0.000000 10.000000 
planeAlignerCenter 0.000000 0.000000 0.000000 0.000000 0.000000 0.000000 10.000000 
Rear_Toe1_01 0.000000 0.000000 0.000000 0.000000 0.000000 0.000000 10.000000 
Rear_Toe2_01 0.000000 0.000000 0.000000 0.000000 0.000000 0.000000 10.000000 
Rear_Toe3_01 0.000000 0.000000 0.000000 0.000000 0.000000 0.000000 10.000000 
planeLockWeightCenter 0.000000 0.000000 0.000000 0.000000 0.000000 0.000000 10.000000 
Rear_Toe1_02 0.000000 0.000000 0.000000 0.000000 0.000000 0.000000 10.000000 
Rear_Toe1_03 0.000000 0.000000 0.000000 0.000000 0.000000 0.000000 10.000000 
Rear_Toe2_02 0.000000 0.000000 0.000000 0.000000 0.000000 0.000000 10.000000 
Rear_Toe2_03 0.000000 0.000000 0.000000 0.000000 0.000000 0.000000 10.000000 
Rear_Toe3_02 0.000000 0.000000 0.000000 0.000000 0.000000 0.000000 10.000000 
Rear_Toe3_03 0.000000 0.000000 0.000000 0.000000 0.000000 0.000000 10.000000 
Back_Bone 0.000000 0.000000 0.000000 0.000000 0.000000 0.000000 10.000000 
Head 0.000000 0.000000 0.000000 0.000000 0.000000 0.000000 10.000000 
Motor_Bone 0.000000 0.000000 0.000000 0.000000 0.000000 0.000000 10.000000 
Ping_Mechanism 0.000000 0.000000 0.000000 0.000000 0.000000 0.000000 10.000000 
BN_LookIK 0.000000 0.000000 0.000000 0.000000 0.000000 0.000000 10.000000 
bottomMouth 0.000000 0.000000 0.000000 0.000000 0.000000 0.000000 10.000000 
L_Mouth01 0.000000 0.000000 0.000000 0.000000 0.000000 0.000000 10.000000 
L_mouthFront 0.000000 0.000000 0.000000 0.000000 0.000000 0.000000 10.000000 
mouthGun 0.000000 0.000000 0.000000 0.000000 0.000000 0.000000 10.000000 
R_Mouth01 0.000000 0.000000 0.000000 0.000000 0.000000 0.000000 10.000000 
R_mouthFront 0.000000 0.000000 0.000000 0.000000 0.000000 0.000000 10.000000 
TopMouth 0.000000 0.000000 0.000000 0.000000 0.000000 0.000000 10.000000 
weapon_bone 0.000000 0.000000 0.000000 0.000000 0.000000 0.000000 10.000000 
#Beginning of Data. Separated by tabs
#Fr	Tx	Ty	Tz	Rx	Ry	Rz	SF
[Pinger_Root]
58 0.000000 0.000000 0.000000 -0.000075 -0.000000 -0.000020 0.000000
59 0.000000 0.000000 0.000000 -0.000075 -0.000000 -0.000020 0.000000
60 0.000000 0.000000 0.000000 -0.000075 -0.000000 -0.000020 0.000000
[Pelvis]
58 74.254501 910.372498 4501.757813 -98.508606 -85.084145 90.885582 4593.485840
59 73.595078 911.616516 4498.770020 -99.011650 -85.353668 91.390228 4590.794434
60 73.096855 912.774231 4490.894531 -99.576675 -85.622749 91.956871 4583.298828
[L_Hip]
58 5.766392 125.831482 872.656799 160.158691 -45.484905 122.312202 881.701050
59 5.766392 125.831482 872.656799 160.158691 -45.484905 122.312202 881.701050
60 5.766392 125.831482 872.656799 160.158691 -45.484905 122.312202 881.701050
[R_Hip]
58 5.765438 125.836372 -872.654907 38.087841 49.812687 125.703735 881.699829
59 5.765438 125.836372 -872.654907 38.087841 49.812687 125.703735 881.699829
60 5.765438 125.836372 -872.654907 38.087841 49.812687 125.703735 881.699829
[Rear_Leg01]
58 -192.298416 -925.602966 -0.001907 169.751251 2.313085 -158.664688 945.367432
59 -192.298416 -925.602966 -0.001907 169.738983 2.254817 -158.794159 945.367432
60 -192.298416 -925.602966 -0.001907 169.726852 2.196522 -158.923599 945.367432
[Spine1]
58 290.604584 5.007505 0.000477 7.258666 -0.691637 18.993542 290.647736
59 290.604584 5.007505 0.000477 7.260073 -0.682166 19.232740 290.647736
60 290.604584 5.007505 0.000477 7.260945 -0.670483 19.263639 290.647736
[L_Leg01]
58 761.932007 -0.002384 -0.069261 22.664476 -15.389113 -10.957189 761.932068
59 761.932007 -0.002384 -0.069261 22.792982 -15.399737 -11.071068 761.932068
60 761.932007 -0.002384 -0.069261 22.852158 -15.418124 -10.844388 761.932068
[L_Leg02]
58 1441.140503 -0.000954 -0.000715 2.268149 -0.171063 -125.381973 1441.140503
59 1441.140503 -0.000954 -0.000715 2.272827 -0.169580 -125.571091 1441.140503
60 1441.140503 -0.000954 -0.000715 2.316633 -0.172975 -126.084129 1441.140503
[L_Leg03]
58 1686.963989 -0.000715 -0.000954 -0.029961 0.014686 118.012077 1686.963989
59 1686.963989 -0.000715 -0.000954 -0.029324 0.013623 118.003433 1686.963989
60 1686.963989 -0.000715 -0.000954 -0.028688 0.012559 117.994781 1686.963989
[L_Foot]
58 3041.570068 -30.715107 11.297464 2.133215 13.178056 54.482368 3041.746094
59 3041.570068 -30.715107 11.297464 2.112930 13.167841 54.638706 3041.746094
60 3041.570068 -30.715107 11.297464 2.092616 13.157679 54.795055 3041.746094
[L_Toe1_01]
58 -188.216690 -224.732346 -21.137953 93.831497 -6.695783 -172.673706 293.899567
59 -188.216690 -224.732346 -21.137953 93.816833 -6.718584 -172.574173 293.899567
60 -188.216690 -224.732346 -21.137953 93.802109 -6.741361 -172.474625 293.899567
[L_Toe2_01]
58 200.746536 -219.926590 148.838394 -89.938499 -25.780266 -53.273739 332.896027
59 200.746536 -219.926590 148.838394 -89.951164 -25.853542 -53.191898 332.896027
60 200.746536 -219.926590 148.838394 -89.963959 -25.926813 -53.109989 332.896027
[L_Toe3_01]
58 188.832520 -219.859131 -191.078659 -99.893715 13.777333 -68.550308 347.140900
59 188.832520 -219.859131 -191.078659 -99.880402 13.785757 -68.440079 347.140900
60 188.832520 -219.859131 -191.078659 -99.867050 13.794149 -68.329849 347.140900
[planeAlignerLeft]
58 36.771542 -605.738525 96.350021 169.306686 -76.298271 89.968506 614.454773
59 36.372681 -604.397156 96.849640 169.306686 -76.298271 89.968506 613.187378
60 35.973812 -603.055908 97.349274 169.306686 -76.298271 89.968506 611.921082
[L_Toe1_02]
58 413.761139 0.000477 0.000000 0.000203 -25.410625 -0.000182 413.761139
59 413.761139 0.000477 0.000000 0.000203 -25.410625 -0.000182 413.761139
60 413.761139 0.000477 0.000000 0.000203 -25.410625 -0.000182 413.761139
[L_Toe1_03]
58 464.317322 0.000358 -0.000089 0.004249 57.928162 0.004249 464.317322
59 464.317322 0.000358 -0.000089 0.004225 57.741718 0.004225 464.317322
60 464.317322 0.000358 -0.000089 0.004162 57.245304 0.004162 464.317322
[L_Toe2_02]
58 342.235809 -0.000477 0.000238 0.001187 -72.958809 0.001187 342.235809
59 342.235809 -0.000477 0.000238 0.001187 -72.889206 0.001187 342.235809
60 342.235809 -0.000477 0.000238 0.001187 -72.819603 0.001187 342.235809
[L_Toe2_03]
58 420.210846 -0.000715 0.000000 -0.021718 86.701286 -0.018220 420.210846
59 420.210846 -0.000715 0.000000 -0.000897 86.565559 0.001435 420.210846
60 420.210846 -0.000715 0.000000 0.018384 86.429817 0.019550 420.210846
[L_Toe3_02]
58 329.270111 0.000954 0.000000 0.001178 -80.551697 0.001178 329.270111
59 329.270111 0.000954 0.000000 0.001178 -80.506279 0.001178 329.270111
60 329.270111 0.000954 0.000000 0.001178 -80.460899 0.001178 329.270111
[L_Toe3_03]
58 439.137451 -0.001907 0.000954 -179.995941 78.682426 -179.992416 439.137451
59 439.137451 -0.001907 0.000954 -179.995941 78.672867 -179.992432 439.137451
60 439.137451 -0.001907 0.000954 -179.995941 78.663246 -179.992432 439.137451
[planeLockWeightLeft]
58 999.998718 0.097961 0.076027 -0.011826 -0.004376 0.005620 999.998779
59 999.998718 0.097961 0.076027 -0.011826 -0.004376 0.005620 999.998779
60 999.998718 0.097961 0.076027 -0.011826 -0.004376 0.005620 999.998779
[R_Leg01]
58 761.455627 -0.001907 -0.000358 121.219696 -14.091666 32.557621 761.455688
59 761.455627 -0.001907 -0.000358 121.048302 -13.587987 32.888241 761.455688
60 761.455627 -0.001907 -0.000358 120.863831 -12.804152 33.332630 761.455688
[R_Leg02]
58 1441.140625 0.000000 -0.000238 -1.162895 -0.118683 -123.846832 1441.140625
59 1441.140625 0.000000 -0.000238 -1.142121 -0.112710 -123.524712 1441.140625
60 1441.140625 0.000000 -0.000238 -1.169997 -0.125051 -122.859863 1441.140625
[R_Leg03]
58 1686.963989 0.000954 0.001431 0.061729 -0.032128 127.651535 1686.963989
59 1686.963989 0.000954 0.001431 0.061687 -0.032208 127.800270 1686.963989
60 1686.963989 0.000954 0.001431 0.064840 -0.033643 128.333267 1686.963989
[R_Foot]
58 3041.560059 -30.531288 -11.204481 -0.911986 -24.670424 58.343899 3041.734131
59 3041.560059 -30.531288 -11.204481 -0.879968 -24.671408 58.119884 3041.734131
60 3041.560059 -30.531288 -11.204481 -0.847948 -24.672276 57.895882 3041.734131
[planeAlignerRight]
58 -122.933044 -586.948730 -307.686523 -36.577137 -71.339012 -64.343925 674.012146
59 -123.262177 -585.938354 -308.094086 -36.577137 -71.339012 -64.343925 673.378967
60 -123.591301 -584.927917 -308.501648 -36.577137 -71.339012 -64.343925 672.747192
[R_Toe1_01]
58 -188.383347 -224.864899 21.052242 76.763824 -0.793178 -173.012695 294.101532
59 -188.383347 -224.864899 21.052242 76.764755 -0.798570 -172.906265 294.101532
60 -188.383347 -224.864899 21.052242 76.764503 -0.743717 -172.880905 294.101532
[R_Toe2_01]
58 200.637817 -220.002121 -148.787384 -91.900879 32.190285 -59.845764 332.857574
59 200.637817 -220.002121 -148.787384 -91.882263 32.276237 -59.764885 332.857574
60 200.637817 -220.002121 -148.787384 -91.863464 32.362171 -59.683887 332.857574
[R_Toe3_01]
58 188.606735 -220.092957 191.126343 -73.183029 -8.544600 -74.592712 347.192566
59 188.606735 -220.092957 191.126343 -73.188614 -8.532422 -74.478073 347.192566
60 188.606735 -220.092957 191.126343 -73.194160 -8.520238 -74.363419 347.192566
[planeLockWeightRight]
58 999.999329 0.000000 0.076017 -0.011823 -0.004379 -0.000027 999.999329
59 999.999329 0.000000 0.076017 -0.011823 -0.004379 -0.000027 999.999329
60 999.999329 0.000000 0.076017 -0.011823 -0.004379 -0.000027 999.999329
[R_Toe1_02]
58 413.762085 0.000477 -0.000119 0.001398 -24.158535 0.001398 413.762085
59 413.762085 0.000477 -0.000119 0.001398 -24.221157 0.001398 413.762085
60 413.762085 0.000477 -0.000119 0.001397 -24.283772 0.001397 413.762085
[R_Toe1_03]
58 464.317810 0.000000 0.001088 0.007749 72.576729 0.007749 464.317810
59 464.317810 0.000000 0.001088 0.007706 72.479668 0.007706 464.317810
60 464.317810 0.000000 0.001088 0.007534 72.076027 0.007534 464.317810
[R_Toe2_02]
58 342.234741 -0.000954 0.000238 0.001196 -68.031052 0.001196 342.234741
59 342.234741 -0.000954 0.000238 0.001196 -67.929810 0.001196 342.234741
60 342.234741 -0.000954 0.000238 0.001196 -67.828606 0.001196 342.234741
[R_Toe2_03]
58 420.210846 0.000715 -0.000268 0.009030 75.064392 0.009030 420.210846
59 420.210846 0.000715 -0.000268 0.008940 74.912910 0.008940 420.210846
60 420.210846 0.000715 -0.000268 0.008851 74.761375 0.008851 420.210846
[R_Toe3_02]
58 329.270355 -0.000477 -0.000954 0.001185 -74.381989 0.001185 329.270355
59 329.270355 -0.000477 -0.000954 0.001185 -74.399055 0.001185 329.270355
60 329.270355 -0.000477 -0.000954 0.001185 -74.416153 0.001185 329.270355
[R_Toe3_03]
58 439.137939 0.000238 0.001431 -0.011134 82.976326 -0.007631 439.137939
59 439.137939 0.000238 0.001431 -0.011189 83.016914 -0.007685 439.137939
60 439.137939 0.000238 0.001431 -0.011244 83.057396 -0.007741 439.137939
[Rear_Leg02]
58 1162.777710 -0.029802 0.005960 0.561972 -2.938725 -119.020119 1162.777710
59 1162.777710 -0.029802 0.005960 0.569441 -2.936141 -119.658424 1162.777710
60 1162.777710 -0.029802 0.005960 0.576881 -2.933474 -120.296738 1162.777710
[Rear_Leg03]
58 607.192505 -0.013351 -0.073195 0.006481 -0.002091 63.971462 607.192505
59 607.192505 -0.013351 -0.073195 0.006480 -0.002094 64.032768 607.192505
60 607.192505 -0.013351 -0.073195 0.006479 -0.002098 64.094070 607.192505
[Rear_Leg04]
58 995.874512 -0.020504 -0.011921 -0.040432 -0.015388 57.600586 995.874573
59 995.874512 -0.020504 -0.011921 -0.040448 -0.015345 57.722054 995.874573
60 995.874512 -0.020504 -0.011921 -0.040464 -0.015302 57.843548 995.874573
[Rear_Foot]
58 3096.176270 -0.067472 -0.041425 -142.894913 85.769966 48.541054 3096.176270
59 3096.176270 -0.067472 -0.041425 -143.019394 85.767235 48.598614 3096.176270
60 3096.176270 -0.067472 -0.041425 -143.143890 85.764458 48.656136 3096.176270
[planeAlignerCenter]
58 1.038952 -10.902102 -789.415405 12.240772 -0.001473 179.998184 789.491394
59 1.038857 -11.357726 -788.123779 12.240769 -0.001473 179.998184 788.206299
60 1.038761 -11.813354 -786.832092 12.240772 -0.001473 179.998184 786.921448
[Rear_Toe1_01]
58 0.653352 83.966492 -371.173737 0.299737 42.363827 90.418571 380.553192
59 0.653352 83.966492 -371.173737 0.298273 42.307621 90.417885 380.553192
60 0.653352 83.966492 -371.173737 0.296814 42.251404 90.417206 380.553192
[Rear_Toe2_01]
58 178.200760 -294.826019 -362.060547 -6.995411 35.485023 -65.983261 499.765686
59 178.200760 -294.826019 -362.060547 -7.021042 35.353317 -66.020348 499.765686
60 178.200760 -294.826019 -362.060547 -7.046532 35.221611 -66.057297 499.765686
[Rear_Toe3_01]
58 -153.359680 -308.780914 -362.060852 3.185823 34.670128 -112.709930 499.952881
59 -153.359680 -308.780914 -362.060852 3.197458 34.549004 -112.691010 499.952881
60 -153.359680 -308.780914 -362.060852 3.209021 34.427898 -112.672188 499.952881
[planeLockWeightCenter]
58 1000.000000 0.000305 0.076256 -0.011814 -0.004373 -0.000015 1000.000000
59 1000.000000 0.000305 0.076256 -0.011814 -0.004373 -0.000015 1000.000000
60 1000.000000 0.000305 0.076256 -0.011814 -0.004373 -0.000015 1000.000000
[Rear_Toe1_02]
58 379.707825 0.194073 0.000477 -0.000264 -31.973898 0.006946 379.707855
59 379.707825 0.194073 0.000477 -0.000261 -31.936764 0.006945 379.707855
60 379.707825 0.194073 0.000477 -0.000258 -31.899611 0.006943 379.707855
[Rear_Toe1_03]
58 500.129700 0.165701 0.000119 0.000008 52.966457 0.007383 500.129761
59 500.129700 0.165701 0.000119 -0.000006 52.835381 0.007372 500.129761
60 500.129700 0.165701 0.000119 -0.000020 52.704304 0.007361 500.129761
[Rear_Toe2_02]
58 340.494507 0.000238 -0.000954 0.001189 -71.793404 0.001189 340.494507
59 340.494507 0.000238 -0.000954 0.001189 -71.747574 0.001189 340.494507
60 340.494507 0.000238 -0.000954 0.001189 -71.453392 0.001189 340.494507
[Rear_Toe2_03]
58 433.103577 0.000000 0.000238 0.007888 72.887520 0.007888 433.103546
59 433.103577 0.000000 0.000238 0.007845 72.792740 0.007845 433.103546
60 433.103577 0.000000 0.000238 0.007660 72.373009 0.007660 433.103546
[Rear_Toe3_02]
58 340.494141 -0.000358 -0.000477 0.001193 -69.486992 0.001193 340.494171
59 340.494141 -0.000358 -0.000477 0.001193 -69.318634 0.001193 340.494171
60 340.494141 -0.000358 -0.000477 0.001193 -69.150284 0.001193 340.494171
[Rear_Toe3_03]
58 433.103577 0.001431 -0.000238 0.006498 69.188004 0.006498 433.103546
59 433.103577 0.001431 -0.000238 0.006478 69.124268 0.006478 433.103546
60 433.103577 0.001431 -0.000238 0.006345 68.681053 0.006345 433.103546
[Back_Bone]
58 1312.175781 -701.934692 0.000954 1.280291 0.031911 -89.098579 1488.125488
59 1312.175781 -701.934692 0.000954 1.343425 0.030188 -88.596039 1488.125488
60 1312.175781 -701.934692 0.000954 1.406539 0.027912 -88.093483 1488.125488
[Head]
58 1406.159424 809.709290 0.001431 0.058988 -1.473718 7.093186 1622.625488
59 1406.159424 809.709290 0.001431 0.049750 -1.474557 7.229604 1622.625488
60 1406.159424 809.709290 0.001431 0.040511 -1.475373 7.366024 1622.625488
[Motor_Bone]
58 1158.364380 -417.834747 0.000477 -0.095385 0.076104 -105.915703 1231.419434
59 1158.364380 -417.834747 0.000477 -0.095385 0.076104 -105.915703 1231.419434
60 1158.364380 -417.834747 0.000477 -0.095385 0.076104 -105.915703 1231.419434
[Ping_Mechanism]
58 1238.666016 -442.406006 0.261739 0.000103 -0.000053 82.120995 1315.301025
59 1237.432495 -442.151459 0.111881 0.000103 -0.000053 82.120995 1314.053711
60 1236.198975 -441.896942 -0.037977 0.000103 -0.000053 82.120995 1312.806519
[BN_LookIK]
58 193.241119 1380.371704 -0.002861 0.000000 89.965736 -31.038179 1393.832153
59 193.241119 1380.371704 -0.002861 0.000000 89.965736 -31.038179 1393.832153
60 193.241119 1380.371704 -0.002861 0.000000 89.965736 -31.038179 1393.832153
[bottomMouth]
58 -435.092926 615.759399 -0.000954 -0.000022 0.000016 73.527184 753.966492
59 -435.092926 615.759399 -0.000954 -0.000022 0.000016 73.527184 753.966492
60 -435.092926 615.759399 -0.000954 -0.000022 0.000016 73.527184 753.966492
[L_Mouth01]
58 554.440979 7.658243 838.222046 150.204178 23.759130 109.605339 1005.027161
59 554.440979 7.658243 838.222046 150.204178 23.759130 109.605339 1005.027161
60 554.440979 7.658243 838.222046 150.204178 23.759130 109.605339 1005.027161
[L_mouthFront]
58 551.629089 934.514771 339.150421 0.000081 2.804060 79.119301 1136.941284
59 551.629089 934.514771 339.150421 0.000081 2.804060 79.119301 1136.941284
60 551.629089 934.514771 339.150421 0.000081 2.804060 79.119301 1136.941284
[mouthGun]
58 55.332661 1627.420898 0.000000 0.000023 0.000009 -11.038128 1628.361328
59 55.332661 1627.420898 0.000000 0.000023 0.000009 -11.038128 1628.361328
60 55.332661 1627.420898 0.000000 0.000023 0.000009 -11.038128 1628.361328
[R_Mouth01]
58 554.442383 7.659197 -838.223938 29.795891 -23.759109 109.605331 1005.029541
59 554.442383 7.659197 -838.223938 29.795891 -23.759109 109.605331 1005.029541
60 554.442383 7.659197 -838.223938 29.795891 -23.759109 109.605331 1005.029541
[R_mouthFront]
58 551.629089 934.514282 -339.151367 0.000029 -2.803930 79.119133 1136.941162
59 551.629089 934.514282 -339.151367 0.000029 -2.803930 79.119133 1136.941162
60 551.629089 934.514282 -339.151367 0.000029 -2.803930 79.119133 1136.941162
[TopMouth]
58 461.269867 -56.106091 -0.008583 -0.000059 -0.000268 92.025169 464.669525
59 461.269867 -56.106091 -0.008583 -0.000059 -0.000268 92.025169 464.669525
60 461.269867 -56.106091 -0.008583 -0.000059 -0.000268 92.025169 464.669525
[weapon_bone]
58 -987.239868 1448.372803 0.001431 0.000000 89.965736 -31.038221 1752.833740
59 -987.239868 1448.372803 0.001431 0.000000 89.965736 -31.038221 1752.833740
60 -987.239868 1448.372803 0.001431 0.000000 89.965736 -31.038221 1752.833740
